<svg width="148" height="148" viewBox="0 0 148 148" fill="none" xmlns="http://www.w3.org/2000/svg">
<g clip-path="url(#clip0_26_3356)">
<path d="M0 8C0 3.58173 3.58172 0 8 0H140C144.418 0 148 3.58172 148 8V140C148 144.418 144.418 148 140 148H8C3.58173 148 0 144.418 0 140V8Z" fill="#F1F5F9"/>
<path d="M65.9619 81.2687C73.6347 84.0309 84.3766 96.6142 90.8217 102.446C92.5404 110.302 86.525 108.781 88.9803 112.26C81.3689 114.96 81.5121 97.4327 74.2485 96.6142C87.016 117.975 91.0263 143.572 91.4355 157.076C81.9213 153.7 64.7343 155.541 58.2891 158.61C53.133 161.066 40.9998 159.224 35.5777 157.997V119.932C31.8947 117.784 31.5878 117.484 25.4496 115.95C29.3781 101.463 41.1021 85.5654 47.5472 78.5065L65.9619 81.2687Z" fill="#465173" stroke="black" stroke-width="1.16626" stroke-linecap="round" stroke-linejoin="round"/>
<path d="M87.4457 155.848C90.6376 146.518 86.3203 128.942 84.3766 119.326C87.5685 128.901 91.0263 147.152 91.7424 157.076L87.4457 155.848Z" fill="black" stroke="black" stroke-width="1.16626" stroke-linecap="round" stroke-linejoin="round"/>
<path d="M53.9922 124.843C56.1406 124.229 61.2353 123.001 64.4272 123.001C67.6191 123.001 72.1 124.229 73.9414 124.843" stroke="black" stroke-width="0.920734" stroke-linecap="round" stroke-linejoin="round"/>
<path d="M45.6175 170.449C44.2456 166.507 26.8096 133.802 44.1325 108.328C49.3885 97.8419 46.9331 85.8723 45.0917 81.2687C38.6466 91.3967 4.8863 123.316 37.3622 170.073C36.5438 174.257 34.7407 182.075 37.3622 182.137C38.3126 182.16 38.5974 181.793 38.6269 181.324C38.9385 182.009 39.5112 182.608 40.4397 182.65C41.38 182.693 41.5591 181.994 41.5417 181.287C41.8756 182.182 42.6928 182.721 43.5574 182.65C45.0889 182.524 43.5574 177.534 45.0889 174.533C45.6856 175.625 47.3404 177.454 49.1852 176.032C51.0301 174.61 47.5754 171.718 45.6175 170.449Z" fill="#F5B896"/>
<path d="M41.409 179.989C41.1976 181.622 42.3298 182.751 43.5574 182.65C45.0889 182.524 43.5574 177.534 45.0889 174.533C45.6856 175.625 47.3404 177.454 49.1852 176.032C51.0301 174.61 47.5754 171.718 45.6175 170.449C44.2456 166.507 26.8096 133.802 44.1325 108.328C49.3885 97.8419 46.9331 85.8723 45.0917 81.2687C38.6466 91.3967 4.8863 123.316 37.3622 170.073C36.5438 174.257 34.7407 182.075 37.3622 182.137C39.4594 182.187 38.3155 180.34 38.3399 179.682M41.409 179.989C41.3951 180.512 42.0907 182.726 40.4397 182.65C38.7228 182.572 38.2225 180.589 38.3399 179.682M41.409 179.989C41.409 179.989 41.2714 177.903 42.0229 174.533M38.3399 179.682C38.3399 179.682 38.033 176.306 39.5676 174.158" stroke="black" stroke-width="1.16626" stroke-linecap="round" stroke-linejoin="round"/>
<path d="M109.543 132.523C116.295 118.098 77.3177 84.6447 65.655 81.2687C65.655 81.2687 69.1159 90.7829 73.3278 99.3765C77.5398 107.97 79.7729 108.277 79.7729 108.277L72.7988 123.921C76.3544 127.162 82.1749 125.103 87.2236 127.368C96.9919 131.75 107.318 133.939 109.543 132.523Z" fill="#F5B896" stroke="black" stroke-width="1.16626" stroke-linecap="round" stroke-linejoin="round"/>
<path d="M80.0799 114.722C77.1335 114.968 77.8292 117.484 78.5453 118.712C81.2461 120.676 84.5812 121.372 85.9112 121.474M80.0799 114.722C79.3979 113.494 80.7551 111.592 83.4559 112.574C86.1567 113.556 87.855 113.597 88.3665 113.494C89.1031 113.475 91.1287 108.781 92.0494 106.435C94.0137 108.154 93.2771 112.881 92.6633 115.029C92.6633 115.029 95.2034 120.238 102.876 122.088M80.0799 114.722C81.3075 116.932 85.0928 117.893 86.8319 118.098" stroke="black" stroke-width="1.16626" stroke-linecap="round" stroke-linejoin="round"/>
<path d="M69.2083 126.343L76.5735 97.7009C76.8183 96.749 77.7675 96.1571 78.73 96.3562L92.9136 99.2907C93.9458 99.5043 94.5884 100.539 94.3224 101.559L93.0997 106.246C93.0234 106.538 92.7592 106.742 92.457 106.742C92.2069 106.742 91.9781 106.883 91.8648 107.106L88.7126 113.312C88.4571 113.815 87.9809 114.169 87.4178 114.134C86.6058 114.083 85.338 113.868 83.662 113.282C83.4864 113.22 83.3206 113.127 83.1691 113.019C82.1207 112.273 81.4381 112.17 80.9937 112.408C79.7497 113.075 78.119 115.167 77.8734 116.557C77.7736 117.122 77.8441 117.763 78.122 118.32C78.3655 118.808 78.5842 119.331 78.6824 119.867C79.2202 122.808 83.3274 125.316 86.4989 126.467C87.4717 126.82 88.1105 127.828 87.8708 128.835L87.5501 130.182C87.3206 131.146 86.3693 131.755 85.3976 131.561L70.6306 128.607C69.5949 128.4 68.9453 127.366 69.2083 126.343Z" fill="white" stroke="black" stroke-width="1.16626" stroke-linecap="round" stroke-linejoin="round"/>
<circle cx="80.4944" cy="101.539" r="1.84147" transform="rotate(-11.4818 80.4944 101.539)" fill="black"/>
<path d="M83.4184 39.5353C82.3682 36.1511 78.4256 30.9418 75.1318 30.9418C76.3046 33.8881 78.3278 46.2873 78.4256 49.9703C80.9632 49.9703 86.1806 48.4357 83.4184 39.5353Z" fill="#BFC2C8" stroke="black" stroke-width="1.16626" stroke-linecap="round" stroke-linejoin="round"/>
<path d="M79.4285 62.2538V39.5353C79.4285 37.08 77.8939 28.1797 62.8552 27.8727C47.8166 27.5658 45.3613 38.0006 45.3613 38.0006C45.3613 43.879 47.2223 47.1801 49.5267 48.9694C46.9882 47.4426 43.1447 46.2348 42.2922 50.2842C41.3101 54.9493 46.3843 56.7294 49.0442 57.0363C51.0085 67.5941 49.0442 75.3487 47.8166 77.9063C50.2719 82.8169 58.8654 81.9985 62.8552 80.9754V73.3026C79.3057 73.7937 79.4285 67.7782 79.4285 62.2538Z" fill="#F5B896" stroke="black" stroke-width="1.16626" stroke-linejoin="round"/>
<path d="M63.2844 73.4659C61.134 73.3682 57.6015 72.7288 56.6485 70.9588C56.6085 70.8717 56.5698 70.7866 56.5324 70.7037C56.5652 70.7913 56.604 70.8763 56.6485 70.9588C58.139 74.2089 61.3715 80.3536 63.2844 80.8318V73.4659Z" fill="black" stroke="black" stroke-width="1.16626" stroke-linecap="round" stroke-linejoin="round"/>
<path d="M50.8858 48.7428C48.1236 41.9904 47.5098 37.3868 49.6582 32.1692C47.5098 31.0952 44.7475 34.0109 42.9061 37.387C40.2274 42.2979 42.9061 49.0494 42.9061 49.0494C46.8959 44.753 52.3343 52.2837 50.8858 48.7428Z" fill="#BFC2C8" stroke="black" stroke-width="1.16626" stroke-linecap="round" stroke-linejoin="round"/>
<path d="M61.9346 35.1323C63.4691 34.0108 69.6074 33.7039 72.3696 35.1322" stroke="black" stroke-width="0.920734" stroke-linecap="round" stroke-linejoin="round"/>
<path d="M64.6968 36.7737C66.7429 36.1599 67.6431 36.0367 69.6074 36.7732" stroke="black" stroke-width="0.920734" stroke-linecap="round" stroke-linejoin="round"/>
<path d="M72.1003 47.6846C73.6349 47.0708 76.3971 48.0529 76.3971 50.7537" stroke="black" stroke-width="0.920734" stroke-linecap="round" stroke-linejoin="round"/>
<path d="M63.5066 48.2985C62.5859 47.9916 60.6217 48.6668 60.1306 50.1399" stroke="black" stroke-width="0.920734" stroke-linecap="round" stroke-linejoin="round"/>
<circle cx="0.920734" cy="0.920734" r="0.920734" transform="matrix(-1 0 0 1 64.4277 50.6881)" fill="black"/>
<circle cx="0.920734" cy="0.920734" r="0.920734" transform="matrix(-1 0 0 1 74.249 50.0673)" fill="black"/>
<path d="M72.7231 50.9972C72.7231 52.1685 73.8195 52.5418 75.1787 52.4004" stroke="black" stroke-width="0.70159" stroke-linecap="round"/>
<path d="M64.0408 51.6089C64.0408 52.8685 62.6179 53.2419 61.5852 53.0121" stroke="black" stroke-width="0.70159" stroke-linecap="round"/>
<path d="M66.0907 55.1985C66.5847 53.5771 68.2996 52.6632 69.9211 53.1572C71.5425 53.6513 72.4564 55.3662 71.9624 56.9876C71.6697 57.9481 70.9486 58.6604 70.0724 58.9787" stroke="black" stroke-width="0.920734" stroke-linecap="round" stroke-linejoin="round"/>
<path d="M65.3481 63.1613C65.8597 63.8774 66.8827 65.3096 69.0311 65.3096C70.7498 65.3096 71.7933 63.8774 72.1002 63.1613" stroke="black" stroke-width="0.920734" stroke-linecap="round" stroke-linejoin="round"/>
<path d="M60.4372 54.0994C60.4372 55.8834 61.8113 57.3296 63.5063 57.3296C65.2014 57.3296 66.5754 55.8834 66.5754 54.0994C66.5754 54.0994 65.2014 54.0994 63.5063 54.0994C61.8113 54.0994 60.4372 54.0994 60.4372 54.0994Z" fill="white" stroke="black" stroke-width="0.920734" stroke-linecap="round" stroke-linejoin="round"/>
<path d="M71.7929 53.6466C71.7929 55.3416 73.167 56.7157 74.862 56.7157C76.5571 56.7157 77.9312 55.3416 77.9312 53.6466C77.9312 53.6466 76.5571 53.6466 74.862 53.6466C73.167 53.6466 71.7929 53.6466 71.7929 53.6466Z" fill="white" stroke="black" stroke-width="0.920734" stroke-linecap="round" stroke-linejoin="round"/>
<path d="M42.0159 138.659C50.9462 129.474 45.398 95.3761 41.5077 79.4755C44.0326 80.4979 44.1148 74.5282 45.4848 76.509C57.0173 93.1839 64.3761 125.623 66.6051 136.494C66.9409 137.116 66.4182 138.54 61.6415 139.266C55.6707 140.174 61.1656 132.773 54.422 135.326C49.0272 137.368 43.9034 138.399 42.0159 138.659Z" fill="white" stroke="black" stroke-width="1.01281" stroke-linecap="round" stroke-linejoin="round"/>
<mask id="mask0_26_3356" style="mask-type:alpha" maskUnits="userSpaceOnUse" x="49" y="118" width="19" height="8">
<path d="M55.2354 121.446C55.0795 121.435 55.0949 121.607 55.0094 121.716C54.9665 121.77 54.8442 121.884 54.7806 121.863C54.7187 121.842 54.6952 121.542 54.6865 121.466C54.5958 120.664 54.6417 119.804 54.5672 118.995C54.5557 118.836 54.356 118.861 54.3362 118.983L54.4204 120.621C53.8554 120.28 53.7934 121.022 53.4551 121.291C53.3843 120.639 52.6946 120.536 52.5334 121.202C52.4919 121.375 52.5309 121.52 52.3588 121.634C52.3154 121.353 52.0776 121.101 51.8141 121.131C51.3532 121.184 51.4124 121.723 51.2978 122.099C51.1222 122.676 50.7608 122.892 50.3577 123.251C50.3315 123.209 50.3119 122.975 50.3274 122.954C50.3406 122.936 50.423 122.906 50.4599 122.873C50.6412 122.708 50.8281 122.455 50.9175 122.211C51.2061 121.424 50.4978 121.146 50.1848 121.789C50.0228 122.121 50.0894 122.399 50.07 122.736C50.0682 122.766 50.0921 122.779 50.0434 122.78C49.9083 122.781 49.7221 122.632 49.648 122.509C49.2772 121.894 49.7885 120.741 50.3559 120.479C50.6713 120.334 50.9438 120.264 50.9713 120.738C50.9804 120.895 50.8203 121.156 50.9855 121.216C51.1863 121.287 51.2113 120.738 51.19 120.59C51.0711 119.765 50.2171 120.18 49.8576 120.561C49.2877 121.163 48.9207 122.786 49.94 123.025C49.9846 123.035 50.0809 123.022 50.087 123.026C50.1191 123.05 50.1139 123.374 50.1401 123.44C49.6138 123.948 48.9302 124.551 49.2848 125.429C49.4841 125.922 49.9272 125.834 50.1794 125.443C50.5025 124.941 50.3844 124.144 50.3784 123.563C50.7204 123.229 51.1451 122.981 51.387 122.533C51.4147 122.731 51.4806 122.99 51.6721 123.062C52.1124 123.227 52.2956 122.66 52.3467 122.28C52.3709 122.099 52.2975 121.941 52.476 121.852C52.5259 122.152 52.5467 122.736 52.9261 122.718C53.2964 122.701 53.4296 122.288 53.4756 121.935C53.4865 121.853 53.4721 121.642 53.4925 121.591C53.5063 121.557 53.6284 121.448 53.6347 121.526C53.6577 121.809 53.6497 122.038 53.8855 122.217C54.1572 122.424 54.408 122.27 54.5694 121.99C54.7654 122.215 54.965 122.133 55.1491 121.937C55.2286 121.853 55.4465 121.461 55.236 121.446L55.2354 121.446ZM50.682 121.703C50.9381 121.825 50.4814 122.6 50.3031 122.673C50.2113 122.461 50.3885 121.563 50.682 121.703ZM49.9296 125.372C49.7004 125.614 49.5235 125.517 49.4396 125.194C49.2942 124.635 49.7759 124.075 50.1523 123.796C50.1626 124.255 50.255 125.028 49.9295 125.372L49.9296 125.372ZM51.9511 122.759C51.6279 123.042 51.5846 122.351 51.5825 122.125C51.582 122.082 51.566 121.889 51.6247 121.92C51.6293 121.922 51.6417 121.966 51.6637 121.978C51.8276 122.072 51.8999 122.041 52.0681 122.036C52.1038 122.035 52.0979 122.003 52.1139 122.064C52.1491 122.197 52.0519 122.671 51.9511 122.759ZM52.1148 121.767C51.9382 121.861 51.5936 121.741 51.7552 121.482C51.9195 121.219 52.1139 121.558 52.1148 121.767ZM52.8554 122.427C52.7509 122.337 52.7192 121.958 52.7147 121.805C52.7135 121.765 52.7076 121.53 52.7678 121.562C52.7724 121.565 52.7839 121.609 52.8067 121.62C52.9539 121.698 53.0947 121.672 53.2509 121.682C53.2867 121.873 53.1256 122.66 52.8553 122.427L52.8554 122.427ZM53.2283 121.39C53.0663 121.494 52.7424 121.379 52.8752 121.132C53.0336 120.837 53.2209 121.168 53.2283 121.39ZM54.4161 121.604C54.3934 121.789 54.3025 122.103 54.0872 122.049C53.7899 121.975 53.8396 121.271 53.9332 121.03C53.985 120.896 54.1203 120.72 54.2608 120.82C54.4386 120.947 54.4425 121.387 54.4158 121.603L54.4161 121.604Z" fill="#EF4444"/>
<path d="M67.422 119.271C67.2873 119.278 67.2871 119.449 67.2251 119.56C67.0693 119.838 66.8435 120.07 66.5844 120.225L66.8348 118.554C66.7554 118.362 66.6639 118.52 66.5939 118.52C66.5465 118.521 66.4458 118.444 66.3596 118.446C65.9057 118.458 65.5355 119.043 65.5137 119.522C65.5094 119.618 65.5479 119.751 65.5219 119.833C65.5143 119.857 65.3412 120.114 65.315 120.141C65.2836 120.173 65.257 120.21 65.2117 120.219C65.1573 120.185 65.1683 120.137 65.1698 120.08C65.1749 119.892 65.2695 119.639 65.2983 119.444C65.3437 119.135 65.4083 118.425 64.9474 118.58C64.8627 118.609 64.5838 118.93 64.5661 118.911C64.5344 118.542 64.2013 118.554 64.039 118.827C63.8189 119.196 63.6812 119.781 63.4662 120.175C63.4328 120.236 63.3893 120.301 63.3375 120.343C63.3472 119.948 63.4623 119.567 63.5049 119.177C63.5158 119.076 63.5423 118.892 63.5359 118.8C63.5257 118.651 63.3404 118.603 63.3037 118.784C63.2689 118.956 63.268 119.229 63.237 119.428C63.1891 119.735 63.0584 120.548 62.686 120.542C62.5482 120.54 62.5342 120.421 62.5308 120.296C62.522 119.965 62.9886 118.485 62.2168 118.912C62.168 118.939 62.0275 119.075 62.0151 119.073C61.9954 119.069 61.9475 118.973 61.9083 118.945C61.6765 118.785 61.4301 119.217 61.3266 119.403C61.1076 119.797 60.9909 120.273 60.6835 120.597C60.6777 120.276 61.0983 119.631 60.8787 119.363C60.7537 119.211 60.599 119.331 60.5874 119.319C60.58 119.311 60.5589 119.157 60.5346 119.105C60.3937 118.804 59.9665 118.996 60.0318 119.356C60.0463 119.437 60.1411 119.529 60.1417 119.54C60.1422 119.55 60.0051 119.67 59.9941 119.676C59.9379 119.708 59.954 119.557 59.9398 119.51C59.8311 119.152 59.3888 118.972 59.1498 119.277C58.8375 119.676 58.9773 120.403 58.7083 120.826C58.6774 120.875 58.6526 120.911 58.5929 120.906C58.5669 120.88 58.6033 120.41 58.6096 120.328C58.6513 119.781 58.9218 118.698 58.7436 118.236C58.6553 118.007 58.4828 118.031 58.264 118.119C58.1904 118.149 57.9934 118.402 57.9687 118.381C57.9624 118.271 57.828 118.165 57.7389 118.161C57.5905 118.154 57.4061 118.387 57.3749 118.382C57.3527 118.378 57.2471 118.19 57.1328 118.165C57.0048 118.137 56.739 118.193 56.8073 118.39C56.8671 118.561 56.9763 118.425 57.0375 118.414C57.1469 118.394 57.1938 118.561 57.1891 118.661C57.0713 119.29 57.007 120.257 56.861 120.873C56.7875 121.183 56.5732 121.636 56.2287 121.451C55.9829 121.318 56.0172 120.931 56.1191 120.698C56.2468 120.407 56.3521 120.811 56.2967 120.912C56.2732 120.955 56.1207 120.903 56.133 121.067C56.1493 121.284 56.5159 121.249 56.5329 120.89C56.5601 120.313 56.0799 120.095 55.8867 120.629C55.5046 121.683 56.5823 122.183 56.9812 121.266C57.2441 120.66 57.2448 119.415 57.4189 118.754C57.45 118.667 57.636 118.453 57.7184 118.432C57.7702 118.419 57.8072 118.587 57.8149 118.631C57.9457 119.388 57.6204 120.472 57.5322 121.237C57.5169 121.396 57.6909 121.417 57.7513 121.291C57.7784 121.235 57.7974 121.074 57.8133 120.997C57.9014 120.571 57.9806 120.043 58.0256 119.609C58.0505 119.368 58.0358 119.033 58.0736 118.821C58.1084 118.627 58.4239 117.972 58.5371 118.363C58.654 118.765 58.475 119.445 58.426 119.876C58.3972 120.13 58.3275 120.626 58.347 120.861C58.3808 121.267 58.8659 121.243 58.9312 120.874C59.2854 121.242 59.5851 121.02 59.7709 120.6C59.8291 120.468 59.919 120.047 59.9593 119.996C60.0026 119.942 60.097 119.92 60.1514 119.876C60.2167 119.823 60.3384 119.682 60.3949 119.653C60.4736 119.613 60.5854 119.622 60.6669 119.558C60.7068 119.548 60.7049 119.552 60.706 119.595C60.7144 119.892 60.212 120.682 60.572 120.85C60.7651 120.94 60.8963 120.761 60.9995 120.607C61.2955 120.163 61.4167 119.544 61.7914 119.176C61.837 119.234 61.5885 120.515 61.5662 120.694C61.5663 120.858 61.7453 120.918 61.8 120.737C61.9269 120.315 61.8578 119.771 62.0991 119.381C62.183 119.245 62.2772 119.149 62.4165 119.09C62.5153 119.504 62.1622 120.252 62.364 120.611C62.4994 120.851 62.8189 120.821 63.0056 120.672C63.0389 120.645 63.0811 120.565 63.1015 120.559C63.145 120.546 63.1836 120.638 63.2319 120.649C63.4181 120.693 63.6015 120.439 63.6828 120.281C63.7736 120.104 64.2253 118.892 64.3087 118.882C64.355 118.876 64.3552 119.017 64.355 119.051C64.3552 119.497 64.2185 120.017 64.2047 120.471C64.2181 120.59 64.3423 120.645 64.4108 120.543C64.5257 120.095 64.4311 119.588 64.6847 119.188C64.7247 119.125 65.0204 118.769 65.0684 118.809C65.244 119.216 64.808 119.968 64.9763 120.324C65.0524 120.484 65.2214 120.503 65.3627 120.439C65.4506 120.399 65.5952 120.112 65.6428 120.098C65.6759 120.088 65.7413 120.175 65.7879 120.197C65.8946 120.247 66.0651 120.235 66.176 120.203C66.2594 120.179 66.3041 120.098 66.38 120.094C66.3296 120.197 66.3452 120.357 66.2737 120.447C66.2173 120.519 65.9512 120.654 65.8527 120.729C65.3976 121.074 64.7844 121.675 64.8007 122.354C64.8118 122.809 65.147 123.092 65.5375 122.928C66.1182 122.684 66.3213 121.199 66.4968 120.596C66.8187 120.388 67.1641 120.13 67.3761 119.779C67.4367 119.679 67.6664 119.257 67.422 119.271L67.422 119.271ZM59.3609 120.766C58.9524 120.955 59.1418 120.057 59.1686 119.838C59.3209 119.985 59.4959 120.029 59.6934 120.035C59.6633 120.226 59.528 120.688 59.3609 120.766ZM59.7212 119.758C59.567 119.825 59.2285 119.687 59.372 119.463C59.5087 119.251 59.7803 119.541 59.7212 119.758ZM60.3117 119.372C60.2642 119.377 60.2506 119.216 60.2996 119.21C60.3471 119.205 60.3607 119.367 60.3117 119.372ZM65.435 122.704C65.275 122.769 65.1109 122.705 65.061 122.514C64.876 121.806 65.7501 121.089 66.2127 120.781C66.0861 121.238 65.8681 122.528 65.435 122.704ZM65.9517 119.978C65.6019 119.932 65.761 119.254 65.9013 119.033C66.0046 118.87 66.324 118.603 66.4917 118.763C66.5892 118.856 66.5466 119.004 66.526 119.122C66.4736 119.421 66.2919 120.023 65.9517 119.978Z" fill="#EF4444"/>
</mask>
<g mask="url(#mask0_26_3356)">
<path d="M48.6189 126.43V118.968L60.9793 116.481L62.8186 123.445L48.6189 126.43Z" fill="#EF4444"/>
</g>
<path d="M62.8742 127.778C62.4616 128.008 61.579 128.426 60.9664 128.132C59.5443 127.447 62.8213 121.936 47.6967 128.986" stroke="#445FCD" stroke-width="0.613823" stroke-linecap="round" stroke-linejoin="round"/>
<path d="M63.4461 130.779C62.6169 131.12 60.6421 131.736 59.3763 131.467C57.7941 131.129 62.5609 124.152 47.0563 132.973" stroke="#445FCD" stroke-width="0.613823" stroke-linecap="round" stroke-linejoin="round"/>
<path d="M44.033 78.7598C45.9392 82.7492 49.8242 91.8532 50.1147 96.3538" stroke="black" stroke-width="0.613823" stroke-linecap="round" stroke-linejoin="round"/>
</g>
<defs>
<clipPath id="clip0_26_3356">
<rect width="148" height="148" fill="white"/>
</clipPath>
</defs>
</svg>
