<svg width="127" height="32" viewBox="0 0 127 32" fill="none" xmlns="http://www.w3.org/2000/svg">
<g clip-path="url(#clip0_47_928)">
<path d="M21.9554 16.013C21.9554 21.5472 17.4693 26.0333 11.9351 26.0333C6.40084 26.0333 1.91477 21.5472 1.91477 16.013C1.91477 10.4788 6.40084 5.99269 11.9351 5.99269C17.4693 5.99269 21.9554 10.4788 21.9554 16.013Z" fill="#E5E7EB" stroke="#374151" stroke-width="2.33766" stroke-linecap="round" stroke-linejoin="round"/>
<path d="M7.44776 16.0001L10.4315 18.9838L16.3991 13.0163" stroke="#374151" stroke-width="2.49351" stroke-linecap="round" stroke-linejoin="round"/>
</g>
<path d="M26.7796 15.49C26.7796 14.0108 27.0996 12.6951 27.7396 11.543C28.3797 10.3767 29.2687 9.47352 30.4065 8.83347C31.5586 8.17919 32.8601 7.85205 34.3109 7.85205C36.0888 7.85205 37.6107 8.32143 38.8766 9.26017C40.1425 10.1989 40.9888 11.479 41.4155 13.1005H37.4045C37.1058 12.4747 36.6791 11.9982 36.1243 11.671C35.5839 11.3439 34.9651 11.1803 34.2682 11.1803C33.1445 11.1803 32.2342 11.5715 31.5373 12.3538C30.8403 13.1361 30.4919 14.1815 30.4919 15.49C30.4919 16.7986 30.8403 17.844 31.5373 18.6263C32.2342 19.4086 33.1445 19.7997 34.2682 19.7997C34.9651 19.7997 35.5839 19.6362 36.1243 19.309C36.6791 18.9819 37.1058 18.5054 37.4045 17.8796H41.4155C40.9888 19.501 40.1425 20.7811 38.8766 21.7199C37.6107 22.6444 36.0888 23.1067 34.3109 23.1067C32.8601 23.1067 31.5586 22.7866 30.4065 22.1466C29.2687 21.4923 28.3797 20.5891 27.7396 19.437C27.0996 18.2849 26.7796 16.9693 26.7796 15.49ZM50.9676 10.967C52.333 10.967 53.4282 11.4221 54.2532 12.3324C55.0782 13.2285 55.4906 14.4659 55.4906 16.0447V23H51.8637V16.5355C51.8637 15.7389 51.6574 15.1202 51.245 14.6793C50.8325 14.2384 50.2778 14.0179 49.5808 14.0179C48.8839 14.0179 48.3291 14.2384 47.9167 14.6793C47.5042 15.1202 47.298 15.7389 47.298 16.5355V23H43.6496V7.212H47.298V12.6951C47.6678 12.1689 48.1727 11.7493 48.8127 11.4364C49.4528 11.1234 50.1711 10.967 50.9676 10.967ZM69.2481 16.8555C69.2481 17.1968 69.2268 17.5524 69.1841 17.9222H60.9274C60.9843 18.6619 61.219 19.2308 61.6315 19.629C62.0582 20.0131 62.5774 20.2051 63.189 20.2051C64.0993 20.2051 64.7322 19.8211 65.0878 19.053H68.9708C68.7717 19.8353 68.409 20.5393 67.8827 21.1652C67.3706 21.791 66.7235 22.2817 65.9412 22.6373C65.1589 22.9929 64.2842 23.1707 63.317 23.1707C62.1506 23.1707 61.1123 22.9218 60.202 22.4239C59.2917 21.9261 58.5806 21.215 58.0685 20.2904C57.5565 19.3659 57.3005 18.2849 57.3005 17.0475C57.3005 15.8101 57.5494 14.7291 58.0472 13.8046C58.5592 12.88 59.2704 12.1689 60.1807 11.671C61.091 11.1732 62.1364 10.9243 63.317 10.9243C64.4691 10.9243 65.4932 11.1661 66.3892 11.6497C67.2853 12.1333 67.9823 12.8231 68.4801 13.7192C68.9921 14.6153 69.2481 15.6607 69.2481 16.8555ZM65.5145 15.8954C65.5145 15.2696 65.3011 14.7717 64.8744 14.4019C64.4477 14.0321 63.9144 13.8472 63.2743 13.8472C62.6627 13.8472 62.1435 14.025 61.7168 14.3806C61.3044 14.7362 61.0483 15.2411 60.9488 15.8954H65.5145ZM70.4474 17.0475C70.4474 15.8101 70.6963 14.7291 71.1941 13.8046C71.7062 12.88 72.4102 12.1689 73.3063 11.671C74.2166 11.1732 75.2549 10.9243 76.4212 10.9243C77.9147 10.9243 79.1592 11.3155 80.1549 12.0977C81.1647 12.88 81.8261 13.9823 82.1391 15.4047H78.2561C77.9289 14.4944 77.296 14.0392 76.3572 14.0392C75.6887 14.0392 75.1554 14.3024 74.7571 14.8286C74.3588 15.3407 74.1597 16.0803 74.1597 17.0475C74.1597 18.0147 74.3588 18.7614 74.7571 19.2877C75.1554 19.7997 75.6887 20.0557 76.3572 20.0557C77.296 20.0557 77.9289 19.6006 78.2561 18.6903H82.1391C81.8261 20.0842 81.1647 21.1794 80.1549 21.9759C79.145 22.7724 77.9005 23.1707 76.4212 23.1707C75.2549 23.1707 74.2166 22.9218 73.3063 22.4239C72.4102 21.9261 71.7062 21.215 71.1941 20.2904C70.6963 19.3659 70.4474 18.2849 70.4474 17.0475ZM91.3658 23L87.7389 18.0076V23H84.0906V7.212H87.7389V15.9381L91.3445 11.095H95.8462L90.8965 17.0688L95.8889 23H91.3658ZM100.863 8.02274V16.9835C100.863 17.8796 101.084 18.5694 101.525 19.053C101.966 19.5366 102.613 19.7784 103.466 19.7784C104.32 19.7784 104.974 19.5366 105.429 19.053C105.884 18.5694 106.112 17.8796 106.112 16.9835V8.02274H109.76V16.9622C109.76 18.2992 109.476 19.4299 108.907 20.3544C108.338 21.279 107.57 21.9759 106.603 22.4453C105.65 22.9147 104.583 23.1493 103.402 23.1493C102.222 23.1493 101.162 22.9218 100.223 22.4666C99.2989 21.9972 98.5664 21.3003 98.0259 20.3758C97.4854 19.437 97.2152 18.2992 97.2152 16.9622V8.02274H100.863ZM115.97 12.7805C116.326 12.2258 116.817 11.7777 117.443 11.4364C118.068 11.095 118.801 10.9243 119.64 10.9243C120.621 10.9243 121.51 11.1732 122.307 11.671C123.103 12.1689 123.729 12.88 124.184 13.8046C124.654 14.7291 124.888 15.8029 124.888 17.0262C124.888 18.2494 124.654 19.3304 124.184 20.2691C123.729 21.1936 123.103 21.9119 122.307 22.4239C121.51 22.9218 120.621 23.1707 119.64 23.1707C118.815 23.1707 118.083 23 117.443 22.6586C116.817 22.3173 116.326 21.8763 115.97 21.3359V28.6751H112.322V11.095H115.97V12.7805ZM121.176 17.0262C121.176 16.1159 120.92 15.4047 120.408 14.8926C119.91 14.3664 119.292 14.1032 118.552 14.1032C117.827 14.1032 117.208 14.3664 116.696 14.8926C116.198 15.4189 115.949 16.1372 115.949 17.0475C115.949 17.9578 116.198 18.6761 116.696 19.2023C117.208 19.7286 117.827 19.9917 118.552 19.9917C119.277 19.9917 119.896 19.7286 120.408 19.2023C120.92 18.6619 121.176 17.9365 121.176 17.0262Z" fill="#374151"/>
<defs>
<clipPath id="clip0_47_928">
<rect width="23.8701" height="23.8701" fill="white" transform="translate(0 4.07792)"/>
</clipPath>
</defs>
</svg>
