<svg width="148" height="148" viewBox="0 0 148 148" fill="none" xmlns="http://www.w3.org/2000/svg">
<g clip-path="url(#clip0_26_2921)">
<rect width="148" height="148" rx="8" fill="#ECFEFF"/>
<path d="M66.5858 79.6461C86.2282 81.4876 93.3894 76.4747 98.8116 74.4286C100.53 82.2855 105.871 91.2064 108.326 94.6847C100.714 97.3856 84.2844 96.4239 77.0208 95.6055C89.7884 116.967 93.7987 142.563 94.2079 156.067C84.6936 152.691 67.5066 154.532 61.0614 157.602C55.9053 160.057 43.7721 158.215 38.35 156.988C38.35 146.562 46.0228 132.844 46.0228 120.158C42.3398 118.01 33.1325 116.475 26.9943 114.941C30.9227 100.455 45.409 82.9198 52.161 75.9631L66.5858 79.6461Z" fill="#E5E5E5"/>
<path d="M46.0228 120.158C42.3398 118.01 33.1325 116.475 26.9943 114.941C30.9227 100.455 45.409 82.9198 52.161 75.9631L66.5858 79.6461C86.2282 81.4876 93.3894 76.4747 98.8116 74.4286C100.53 82.2855 105.871 91.2064 108.326 94.6847C100.714 97.3856 84.2844 96.4239 77.0208 95.6055M46.0228 120.158C46.0228 132.844 38.35 146.562 38.35 156.988C43.7721 158.215 55.9053 160.057 61.0614 157.602C67.5066 154.532 84.6936 152.691 94.2079 156.067C93.7987 142.563 89.7884 116.967 77.0208 95.6055M46.0228 120.158L52.161 123.228C50.6264 116.169 53.0817 98.6834 54.3094 89.4673M77.0208 95.6055C76.0329 93.8868 73.5401 90.7972 72.4172 89.4673" stroke="black" stroke-width="1.16626" stroke-linecap="round" stroke-linejoin="round"/>
<path d="M108.94 94.3778C110.167 94.1323 110.319 89.9787 109.807 87.6257C108.58 87.9326 106.431 88.2396 104.897 88.5465C105.818 90.6948 107.712 94.6233 108.94 94.3778Z" fill="black" stroke="black" stroke-width="1.16626" stroke-linecap="round" stroke-linejoin="round"/>
<path d="M26.6874 115.301C33.1189 119.293 47.1563 126.593 51.8541 123.856C43.8847 120.719 27.6941 114.617 26.6874 115.301Z" fill="black" stroke="black" stroke-width="1.16626" stroke-linecap="round" stroke-linejoin="round"/>
<path d="M39.2241 180.015C37.6565 175.213 41.3086 144.147 47.5574 122.316C42.0328 118.019 35.3911 117.217 32.1364 118.019C28.279 137.733 31.3737 160.583 30.9142 180.015C29.4285 184.843 28.8401 194.932 30.9142 196.895C32.2116 198.123 32.5185 196.895 32.5185 195.974C32.9004 197.191 32.7974 198.204 33.8856 198.204C34.9738 198.204 35.3421 196.266 35.3713 195.633C35.3713 197.491 36.0536 198.204 37.2284 198.204C39.2706 198.123 37.9713 191.806 39.2241 187.264C39.9206 188.599 41.8799 190.851 44.1455 189.174C44.795 188.693 39.7629 183.833 39.2241 180.015Z" fill="#F5B896"/>
<path d="M35.3713 195.633C35.3713 197.491 36.0536 198.204 37.2284 198.204C39.2706 198.123 37.9713 191.806 39.2241 187.264C39.9206 188.599 41.8799 190.851 44.1455 189.174C44.795 188.693 39.7629 183.833 39.2241 180.015C37.6565 175.213 41.3086 144.147 47.5574 122.316C42.0328 118.019 35.3911 117.217 32.1364 118.019C28.279 137.733 31.3737 160.583 30.9142 180.015C29.4285 184.843 28.8401 194.932 30.9142 196.895C32.2116 198.123 32.5185 196.895 32.5185 195.974M35.3713 195.633C35.3421 196.266 34.9738 198.204 33.8856 198.204C32.7974 198.204 32.9004 197.191 32.5185 195.974M35.3713 195.633C35.3713 195.633 34.9738 192.598 35.3713 187.264M32.5185 195.974C32.5185 195.974 31.5978 189.836 32.5185 187.264" stroke="black" stroke-width="1.16626" stroke-linecap="round" stroke-linejoin="round"/>
<path d="M49.3989 122.009L41.4192 157.61C41.4192 154.933 45.716 132.76 47.8643 122.009H49.3989Z" fill="black" stroke="black" stroke-width="1.16626" stroke-linecap="round" stroke-linejoin="round"/>
<path d="M115.385 63.9935C114.648 68.1675 104.643 72.4847 99.1185 74.4285C99.1185 81.0577 103.415 85.9888 105.564 87.9326C109.247 87.9326 125.512 80.5667 127.047 71.9732C127.911 67.1392 126.843 37.8037 125.206 24.7088C127.968 22.5604 126.127 17.3429 125.206 14.8876C124.469 12.9233 120.193 14.8876 118.147 16.1153C115.078 10.5908 108.994 12.0125 110.781 13.3531C114.464 16.1153 114.669 20.2074 115.385 23.1742C118.147 25.0157 116.306 58.776 115.385 63.9935Z" fill="#F5B896" stroke="black" stroke-width="1.16626" stroke-linecap="round" stroke-linejoin="round"/>
<path d="M119.244 17.1555C119.704 18.4174 122.785 17.7705 124.855 17.0156C126.926 16.2607 127.08 15.3511 126.741 14.4218C126.402 13.4926 125.698 12.8956 123.628 13.6505C121.558 14.4053 118.784 15.8935 119.244 17.1555Z" fill="#F5B896" stroke="black" stroke-width="1.16626" stroke-linecap="round" stroke-linejoin="round"/>
<path d="M120.472 20.2246C120.932 21.4865 124.013 20.8396 126.083 20.0847C128.153 19.3298 128.307 18.4202 127.968 17.4909C127.63 16.5617 126.926 15.9647 124.856 16.7196C122.786 17.4744 120.011 18.9626 120.472 20.2246Z" fill="#F5B896" stroke="black" stroke-width="1.16626" stroke-linecap="round" stroke-linejoin="round"/>
<path d="M121.085 23.2937C121.545 24.5556 124.627 23.9087 126.697 23.1538C128.767 22.3989 128.921 21.4893 128.582 20.56C128.243 19.6308 127.54 19.0338 125.47 19.7887C123.399 20.5435 120.625 22.0317 121.085 23.2937Z" fill="#F5B896" stroke="black" stroke-width="1.16626" stroke-linecap="round" stroke-linejoin="round"/>
<path d="M83.3185 60.5144V36.8822C83.3185 36.8822 80.8632 24.5986 65.8245 24.2917C50.7859 23.9848 49.2513 36.2612 49.2513 36.2612C49.2513 42.1396 51.1124 45.4408 53.4167 47.23C50.8782 45.7032 47.0347 44.4954 46.1822 48.5449C45.2001 53.2099 50.2743 54.99 52.9342 55.2969C54.8985 65.8547 52.9342 73.6093 51.7066 76.1669C54.1619 81.0775 62.7554 80.2591 66.7453 79.236V71.5632C83.1957 72.0543 83.3185 66.0388 83.3185 60.5144Z" fill="#F5B896" stroke="black" stroke-width="1.16626" stroke-linejoin="round"/>
<path d="M66.4382 71.563C64.2878 71.4652 60.7553 70.8258 59.8023 69.0559C59.7623 68.9687 59.7236 68.8836 59.6862 68.8008C59.719 68.8883 59.7578 68.9733 59.8023 69.0559C61.2928 72.3059 64.5253 78.4506 66.4382 78.9289V71.563Z" fill="black" stroke="black" stroke-width="1.16626" stroke-linecap="round" stroke-linejoin="round"/>
<path d="M88.536 31.0442C87.1036 26.7475 80.5563 25.7244 75.0319 26.4405C68.2799 19.9957 46.796 18.1539 42.4992 37.1824C39.0618 52.4052 47.9214 61.326 53.2412 64.4974C53.2412 64.4974 53.5084 64.3093 53.5481 64.1905C54.0391 62.7173 53.3435 57.4384 52.9342 54.9831C48.0237 54.9831 45.2615 50.0726 47.4098 47.0034C49.1285 44.5481 53.2412 46.5942 55.0826 47.9242C58.029 47.1876 59.3794 43.3205 59.6864 41.479C92.8328 45.4689 89.9683 35.341 88.536 31.0442Z" fill="black" stroke="black" stroke-width="1.16626" stroke-linecap="round" stroke-linejoin="round"/>
<circle cx="7.67279" cy="7.67279" r="7.67279" transform="matrix(-1 0 0 1 49.2512 52.5278)" fill="black"/>
<path d="M40.6577 55.5969C37.8955 56.2107 35.7471 57.7453 36.361 62.0421" stroke="white" stroke-width="1.16626" stroke-linecap="round" stroke-linejoin="round"/>
<path d="M76.8732 29.3727C80.3516 28.9423 86.3874 29.3727 87.3082 32.9876C88.277 36.791 84.9231 38.2379 83.7305 38.4101" stroke="white" stroke-width="1.16626" stroke-linecap="round" stroke-linejoin="round"/>
<path d="M70.0055 54.1985C70.4995 52.5771 72.2144 51.6632 73.8359 52.1572C75.4573 52.6513 76.3712 54.3662 75.8772 55.9876C75.5845 56.9481 74.8634 57.6604 73.9872 57.9787" stroke="black" stroke-width="0.920734" stroke-linecap="round" stroke-linejoin="round"/>
<circle cx="0.920734" cy="0.920734" r="0.920734" transform="matrix(-1 0 0 1 68.7339 51.4257)" fill="black"/>
<circle cx="0.920734" cy="0.920734" r="0.920734" transform="matrix(-1 0 0 1 78.5552 50.8052)" fill="black"/>
<path d="M68.1202 46.8223C66.5857 46.2085 63.8235 47.1906 63.8235 49.8914" stroke="black" stroke-width="0.920734" stroke-linecap="round" stroke-linejoin="round"/>
<path d="M77.0206 46.5811C77.9413 46.2742 79.9055 46.9494 80.3966 48.4225" stroke="black" stroke-width="0.920734" stroke-linecap="round" stroke-linejoin="round"/>
<path d="M69.3477 62.1613C69.8592 62.8774 70.8822 64.3096 73.0306 64.3096C74.7493 64.3096 75.7928 62.8774 76.0997 62.1613" stroke="black" stroke-width="0.920734" stroke-linecap="round" stroke-linejoin="round"/>
<path d="M54.2548 88.2484C46.8297 86.5744 49.6511 80.0641 52.1064 75.9719C55.7893 80.637 64.2805 79.9618 68.0658 79.041C69.9072 82.4171 72.4853 87.5118 68.0658 88.2484C63.6462 88.985 61.8798 82.724 61.0614 80.5756C61.0614 83.3378 61.0613 89.7829 54.2548 88.2484Z" fill="white" stroke="black" stroke-width="1.16626" stroke-linecap="round" stroke-linejoin="round"/>
<path d="M67.1998 103.594C64.4376 90.7036 62.5961 86.1 61.0613 82.1101" stroke="black" stroke-width="1.16626" stroke-linecap="round" stroke-linejoin="round"/>
<circle cx="67.701" cy="93.6278" r="0.920734" transform="rotate(-17.8188 67.701 93.6278)" fill="black"/>
<circle cx="69.7673" cy="100.056" r="0.920734" transform="rotate(-17.8188 69.7673 100.056)" fill="black"/>
</g>
<defs>
<clipPath id="clip0_26_2921">
<rect width="148" height="148" fill="white"/>
</clipPath>
</defs>
</svg>
