<svg width="148" height="148" viewBox="0 0 148 148" fill="none" xmlns="http://www.w3.org/2000/svg">
<g clip-path="url(#clip0_26_3203)">
<path d="M0 8C0 3.58173 3.58172 0 8 0H140C144.418 0 148 3.58172 148 8V140C148 144.418 144.418 148 140 148H8C3.58173 148 0 144.418 0 140V8Z" fill="#F0FDFA"/>
<path d="M61.7498 80.6549C80.8168 80.6549 92.0889 99.6834 94.9626 106.979C88.0507 109.401 84.4364 111.589 80.8168 115.009C87.315 132.663 89.0592 146.758 89.3719 157.076C79.8576 153.7 75.476 158.724 61.7498 160.759C48.0237 162.794 38.9361 159.224 33.514 157.997C39.4067 154.805 41.1868 133.853 41.1868 121.167C37.5038 119.019 28.8561 114.357 22.7179 112.823C26.9791 94.8562 31.4093 86.4048 47.325 76.9719L61.7498 80.6549Z" fill="#2563EB"/>
<path d="M41.1868 121.167C37.5038 119.019 28.8561 114.357 22.7179 112.823C26.9791 94.8562 31.4093 86.4048 47.325 76.9719L61.7498 80.6549C80.8168 80.6549 92.0889 99.6834 94.9626 106.979C88.0507 109.401 84.4364 111.589 80.8168 115.009M41.1868 121.167C41.1868 133.853 39.4067 154.805 33.514 157.997C38.9361 159.224 48.0237 162.794 61.7498 160.759C75.476 158.724 79.8576 153.7 89.3719 157.076C88.9627 143.572 86.1014 123.599 73.3399 97.6438M41.1868 121.167H44.7848C43.2503 114.108 44.7848 108.584 47.325 99.6834" stroke="black" stroke-width="1.16626" stroke-linecap="round" stroke-linejoin="round"/>
<path d="M22.718 112.857C29.1495 116.849 39.2912 125.687 47.8848 121.412C39.9153 118.275 23.7247 112.172 22.718 112.857Z" fill="black" stroke="black" stroke-width="1.16626" stroke-linecap="round" stroke-linejoin="round"/>
<path d="M30.8825 131.797C42.5754 134.356 81.0062 123.1 83.7529 119.8C83.7529 119.8 81.4305 113.693 76.7223 113.897C72.4174 114.085 49.6341 120.36 43.1303 122.216C43.5702 122.071 43.9648 121.908 44.1013 121.748C43.977 120.853 43.7708 119.8 43.7708 119.8C42.0365 119.241 34.6858 115.848 28.2021 113.898C26.0408 122.613 22.923 129.186 30.8825 131.797Z" fill="#F5B896" stroke="black" stroke-width="1.16626" stroke-linecap="round" stroke-linejoin="round"/>
<path d="M94.1548 107.736C97.3417 114.588 103.665 128.413 100.36 130.103C85.9496 137.471 58.1844 121.684 44.4528 121.684L44.1687 115.505C48.5525 112.875 68.2241 115.696 84.4771 119.868L81.2528 114.395C83.4725 111.482 90.8477 107.736 94.1548 107.736Z" fill="#F5B896"/>
<path d="M89.02 121.096C72.1174 116.284 48.9708 112.624 44.1687 115.505L44.4528 121.684C58.1844 121.684 85.9496 137.471 100.36 130.103C103.665 128.413 97.3417 114.588 94.1548 107.736C90.8477 107.736 83.4725 111.482 81.2528 114.395M81.2528 114.395C81.2528 114.395 84.5637 119.708 84.5637 120.015L81.2528 114.395Z" stroke="black" stroke-width="1.16626" stroke-linecap="round" stroke-linejoin="round"/>
<path d="M79.3184 61.5144V37.8822C79.3184 37.8822 76.8631 25.5986 61.8244 25.2917C46.7857 24.9848 45.2512 37.2612 45.2512 37.2612C45.2512 43.1396 47.1122 46.4408 49.4166 48.23C46.8781 46.7032 43.0346 45.4954 42.1821 49.5449C41.2 54.2099 46.2742 55.99 48.9341 56.2969C50.8984 66.8547 48.9341 74.6093 47.7065 77.1669C50.1618 82.0775 58.7553 81.2591 62.7451 80.236V72.5632C79.1956 73.0543 79.3184 67.0388 79.3184 61.5144Z" fill="#F5B896" stroke="black" stroke-width="1.16626" stroke-linejoin="round"/>
<path d="M62.4382 72.563C60.2878 72.4652 56.7553 71.8258 55.8023 70.0559C55.7623 69.9687 55.7236 69.8836 55.6862 69.8008C55.719 69.8883 55.7578 69.9733 55.8023 70.0559C57.2928 73.3059 60.5253 79.4506 62.4382 79.9289V72.563Z" fill="black" stroke="black" stroke-width="1.16626" stroke-linecap="round" stroke-linejoin="round"/>
<path d="M84.5358 32.0442C83.1035 27.7475 76.5561 26.7244 71.0317 27.4405C64.2797 20.9957 42.7959 19.1539 38.4991 38.1824C35.0617 53.4052 43.9212 62.326 49.241 65.4974C49.241 65.4974 49.5083 65.3093 49.5479 65.1905C50.0389 63.7173 49.3433 58.4384 48.9341 55.9831C44.0235 55.9831 41.2613 51.0726 43.4097 48.0034C45.1284 45.5481 49.241 47.5942 51.0825 48.9242C54.0289 48.1876 55.3793 44.3205 55.6862 42.479C88.8327 46.4689 85.9682 36.341 84.5358 32.0442Z" fill="black" stroke="black" stroke-width="1.16626" stroke-linecap="round" stroke-linejoin="round"/>
<circle cx="7.67279" cy="7.67279" r="7.67279" transform="matrix(-1 0 0 1 45.2512 53.5278)" fill="black"/>
<path d="M36.6577 56.5969C33.8955 57.2107 31.7471 58.7453 32.361 63.0421" stroke="white" stroke-width="1.16626" stroke-linecap="round" stroke-linejoin="round"/>
<path d="M72.8731 30.3727C76.3514 29.9423 82.3873 30.3727 83.3081 33.9876C84.2769 37.791 80.923 39.2379 79.7304 39.4101" stroke="white" stroke-width="1.16626" stroke-linecap="round" stroke-linejoin="round"/>
<path d="M66.4215 55.1985C66.9155 53.5771 68.6305 52.6632 70.2519 53.1572C71.8733 53.6513 72.7872 55.3662 72.2932 56.9876C72.0005 57.9481 71.2795 58.6604 70.4032 58.9787" stroke="black" stroke-width="0.920734" stroke-linecap="round" stroke-linejoin="round"/>
<path d="M66.0972 48.1994C65.0485 46.9219 62.155 46.4509 60.8532 48.8173" stroke="black" stroke-width="0.920734" stroke-linecap="round" stroke-linejoin="round"/>
<path d="M72.5512 47.6725C73.2081 46.9581 75.2536 46.5976 76.3967 47.6487" stroke="black" stroke-width="0.920734" stroke-linecap="round" stroke-linejoin="round"/>
<path d="M62.4005 52.0888C62.5595 52.7564 62.9466 53.5004 63.9839 53.4048C64.9503 53.3157 65.4589 52.4891 65.3698 51.5226" stroke="black" stroke-width="0.920734" stroke-linecap="round" stroke-linejoin="round"/>
<path d="M72.9026 51.6593C73.0311 52.3335 73.3838 53.0943 74.4244 53.046C75.3939 53.001 75.9395 52.1983 75.8945 51.2288" stroke="black" stroke-width="0.920734" stroke-linecap="round" stroke-linejoin="round"/>
<path d="M65.3479 63.1613C65.8594 63.8774 66.8825 65.3096 69.0308 65.3096C70.7495 65.3096 71.793 63.8774 72.1 63.1613" stroke="black" stroke-width="0.920734" stroke-linecap="round" stroke-linejoin="round"/>
<path d="M61.9719 94.159C64.7484 94.3097 64.3981 84.3126 63.0936 78.8479L48.4678 76.9719C52.8354 85.0064 59.1953 94.0082 61.9719 94.159Z" fill="#F5B896" stroke="black" stroke-width="1.16626" stroke-linecap="round" stroke-linejoin="round"/>
<path d="M67.7446 82.3301C69.8729 93.6802 65.5806 99.4222 63.878 100.503C62.1754 101.584 53.4381 93.9299 45.3183 80.0101" stroke="black" stroke-width="1.0132" stroke-linecap="round" stroke-linejoin="round"/>
<ellipse cx="69.6603" cy="103.976" rx="1.33611" ry="1.54665" fill="white" fill-opacity="0.9"/>
<rect x="53.1167" y="102.43" width="6.3786" height="3.09329" fill="white" fill-opacity="0.9"/>
<rect x="71.6638" y="102.817" width="3.34027" height="0.773323" rx="0.386661" fill="white" fill-opacity="0.9"/>
<rect x="71.6636" y="104.365" width="3.34027" height="0.773323" rx="0.386661" fill="white" fill-opacity="0.9"/>
<path d="M49.5701 77.7306L49.0815 76.3582L60.4373 77.5858L63.1995 80.6549L49.5701 77.7306Z" fill="#F5B896"/>
<path d="M63.5319 82.2608C63.5319 82.2608 61.358 80.6548 60.4373 77.5857L61.3398 77.9508L63.1993 78.8371L63.5319 82.2608Z" fill="black"/>
<path d="M50.2548 89.2484C42.8297 87.5744 45.6511 81.0641 48.1064 76.9719C51.7893 81.637 60.2805 80.9618 64.0658 80.041C65.9072 83.4171 68.4853 88.5118 64.0658 89.2484C59.6462 89.985 57.8798 83.724 57.0614 81.5756C57.0614 84.3378 57.0613 90.7829 50.2548 89.2484Z" fill="white" stroke="black" stroke-width="1.16626" stroke-linecap="round" stroke-linejoin="round"/>
<path d="M63.1998 104.594C60.4376 91.7036 58.5961 87.1 57.0613 83.1101" stroke="black" stroke-width="1.16626" stroke-linecap="round" stroke-linejoin="round"/>
<circle cx="63.7008" cy="94.6278" r="0.920734" transform="rotate(-17.8188 63.7008 94.6278)" fill="black"/>
<circle cx="65.7672" cy="101.056" r="0.920734" transform="rotate(-17.8188 65.7672 101.056)" fill="black"/>
</g>
<defs>
<clipPath id="clip0_26_3203">
<rect width="148" height="148" fill="white"/>
</clipPath>
</defs>
</svg>
