<svg width="148" height="148" viewBox="0 0 148 148" fill="none" xmlns="http://www.w3.org/2000/svg">
<g clip-path="url(#clip0_26_2308)">
<path d="M0 8C0 3.58173 3.58172 0 8 0H140C144.418 0 148 3.58172 148 8V140C148 144.418 144.418 148 140 148H8C3.58173 148 0 144.418 0 140V8Z" fill="#FDF4FF"/>
<path d="M64.1371 80.054C74.0041 80.054 83.2344 78.1442 94.0562 73.6809C98.5122 81.0015 107.424 86.6319 109.971 90.2392C102.077 93.0401 85.1441 100.099 76.8686 101.69C90.1094 123.843 87.9026 151.669 88.327 165.673C78.4601 162.172 67.0017 159.99 58.408 164.082C53.0607 166.628 40.4777 164.719 34.8546 163.445C34.8546 150.388 37.401 135.747 42.8118 122.068C38.9924 119.84 29.4438 118.249 23.078 116.657C27.1521 101.634 42.1753 83.449 49.1776 76.2345L56.6574 78.1442L64.1371 80.054Z" fill="#FF8140"/>
<path d="M42.8118 122.068C38.9924 119.84 29.4438 118.249 23.078 116.657C27.1521 101.634 42.1753 83.449 49.1776 76.2345L56.6574 78.1442L64.1371 80.054C74.0041 80.054 83.2344 78.1442 94.0562 73.6809C98.5122 81.0015 107.424 86.6319 109.971 90.2392C102.077 93.0401 85.1441 100.099 76.8686 101.69M42.8118 122.068C37.401 135.747 34.8546 150.388 34.8546 163.445C40.4777 164.719 53.0607 166.628 58.4079 164.082C67.0017 159.99 78.4601 162.172 88.327 165.673C87.9026 151.669 90.1094 123.843 76.8686 101.69M42.8118 122.068L49.1776 125.251C49.1776 117.923 51.4056 109.966 53.6336 97.8708M76.8686 101.69C75.8441 99.9078 72.9406 95.4306 71.776 94.0513" stroke="black" stroke-width="1.20949" stroke-linecap="round" stroke-linejoin="round"/>
<path d="M109.915 89.0496C110.931 88.2419 106.703 81.6264 105.117 79.6973C104.13 80.5616 103.593 83.6989 102.322 84.7084C104.189 86.255 108.898 89.8573 109.915 89.0496Z" fill="black" stroke="black" stroke-width="1.20949" stroke-linecap="round" stroke-linejoin="round"/>
<path d="M22.7596 117.03C29.4295 121.171 43.9873 128.741 48.8593 125.902C40.5944 122.649 23.8036 116.321 22.7596 117.03Z" fill="black" stroke="black" stroke-width="1.20949" stroke-linecap="round" stroke-linejoin="round"/>
<path d="M36.8626 183.005C35.2369 178.025 39.0243 145.808 45.5048 123.167C38.9921 119.514 32.308 118.711 29.5122 118.711C25.5117 139.156 28.7212 162.853 28.2446 183.005C26.7038 188.012 26.7302 199.112 28.8812 201.147C30.0694 202.271 30.8385 201.41 30.6648 200.536C31.0746 201.6 31.7014 202.269 31.9898 202.269C32.308 202.269 33.2629 202.505 33.5812 201.314C34.2954 202.79 34.8543 202.505 35.4295 202.505C37.5474 202.42 35.5633 195.233 36.8626 190.522C37.5849 191.907 39.6168 194.242 41.9664 192.503C42.64 192.004 37.4213 186.964 36.8626 183.005Z" fill="#AF6D53"/>
<path d="M33.5812 201.314C34.2954 202.79 34.8543 202.505 35.4295 202.505C37.5474 202.42 35.5633 195.233 36.8626 190.522C37.5849 191.907 39.6168 194.242 41.9664 192.503C42.64 192.004 37.4213 186.964 36.8626 183.005C35.2369 178.025 39.0243 145.808 45.5048 123.167C38.9921 119.514 32.308 118.711 29.5122 118.711C25.5117 139.156 28.7212 162.853 28.2446 183.005C26.7038 188.012 26.7302 199.112 28.8812 201.147C30.2267 202.42 31.0349 201.147 30.545 200.192M33.5812 201.314C33.2629 202.505 32.308 202.269 31.9898 202.269C31.6715 202.269 30.941 201.454 30.545 200.192M33.5812 201.314C33.5812 201.314 32.4547 196.055 32.867 190.522M30.545 200.192C30.545 200.192 28.9536 193.19 29.9084 190.522" stroke="black" stroke-width="1.20949" stroke-linecap="round" stroke-linejoin="round"/>
<path d="M104.283 61.8105C107.242 65.0602 100.103 70.498 93.4192 73.9992C97.4464 78.8983 101.897 86.1689 104.854 85.637C107.188 82.6136 125.283 68.5162 119.2 61.8105C115.779 58.0384 88.0984 38.3273 76.3111 31.3728C76.2978 27.7438 70.8475 25.9494 68.2484 25.1493C66.169 24.5092 65.0717 29.2645 64.783 31.7222C58.3029 30.741 57.3999 36.8431 59.6331 36.2252C64.2345 34.9521 65.9382 37.1708 68.8276 38.463C72.0897 37.3623 100.583 57.7483 104.283 61.8105Z" fill="#AF6D53" stroke="black" stroke-width="1.20949" stroke-linecap="round" stroke-linejoin="round"/>
<path d="M68.5836 33.7233C69.5061 32.6796 67.392 30.1915 65.6797 28.6781C63.9674 27.1648 63.0621 27.4745 62.3828 28.2431C61.7035 29.0117 61.5075 29.9482 63.2198 31.4615C64.9321 32.9749 67.6612 34.7671 68.5836 33.7233Z" fill="#F5B896" stroke="black" stroke-width="1.20949" stroke-linecap="round" stroke-linejoin="round"/>
<path d="M70.7735 31.0859C71.6959 30.0421 69.5819 27.554 67.8695 26.0407C66.1572 24.5273 65.2519 24.837 64.5726 25.6056C63.8933 26.3742 63.6973 27.3107 65.4096 28.8241C67.1219 30.3374 69.851 32.1297 70.7735 31.0859Z" fill="#F5B896" stroke="black" stroke-width="1.20949" stroke-linecap="round" stroke-linejoin="round"/>
<path d="M73.2672 29.0083C74.1897 27.9645 72.0756 25.4764 70.3633 23.963C68.651 22.4497 67.7457 22.7594 67.0664 23.528C66.3871 24.2966 66.1911 25.2331 67.9034 26.7464C69.6157 28.2598 72.3447 30.052 73.2672 29.0083Z" fill="#F5B896" stroke="black" stroke-width="1.20949" stroke-linecap="round" stroke-linejoin="round"/>
<path d="M81.1351 60.9627V36.4545C81.1351 36.4545 78.5888 23.7155 62.9927 23.3972C47.3966 23.0789 45.8052 35.8105 45.8052 35.8105C45.8052 41.9068 47.7352 45.3302 50.125 47.1858C47.4924 45.6024 43.5064 44.3498 42.6223 48.5494C41.6038 53.3874 46.8661 55.2335 49.6246 55.5518C51.6617 66.5009 49.6246 74.5429 48.3515 77.1953C50.8978 82.2879 59.8098 81.4392 63.9476 80.3782V72.421C81.0078 72.9303 81.1351 66.6918 81.1351 60.9627Z" fill="#AF6D53" stroke="black" stroke-width="1.20949" stroke-linejoin="round"/>
<path d="M63.6293 72.4207C61.3992 72.3194 57.7357 71.6563 56.7474 69.8207C56.7059 69.7303 56.6657 69.6421 56.6269 69.5562C56.661 69.6469 56.7013 69.7351 56.7474 69.8207C58.2931 73.1912 61.6454 79.5637 63.6293 80.0597V72.4207Z" fill="black" stroke="black" stroke-width="1.20949" stroke-linecap="round" stroke-linejoin="round"/>
<path d="M51.8301 48.5423V38.0388C54.399 36.7657 59.1733 34.8559 66.7896 34.8559C73.1757 34.8559 79.2028 36.9779 81.4308 38.3571C81.7491 35.1742 78.8845 23.3976 62.0153 23.3976C48.5199 23.3976 45.3582 33.3706 45.4643 38.3571V45.6777C47.756 45.1685 50.663 47.3753 51.8301 48.5423Z" fill="black" stroke="black" stroke-width="1.20949" stroke-linecap="round" stroke-linejoin="round"/>
<circle cx="0.636576" cy="0.636576" r="0.636576" transform="matrix(-1 0 0 1 60.4465 30.4)" fill="white"/>
<circle cx="0.636576" cy="0.636576" r="0.636576" transform="matrix(-1 0 0 1 66.1758 27.8536)" fill="white"/>
<circle cx="0.636576" cy="0.636576" r="0.636576" transform="matrix(-1 0 0 1 71.2684 31.0365)" fill="white"/>
<circle cx="0.636576" cy="0.636576" r="0.636576" transform="matrix(-1 0 0 1 64.9026 31.6731)" fill="white"/>
<path d="M74.152 46.7339C75.7434 46.0973 78.608 47.1158 78.608 49.9167" stroke="black" stroke-width="0.954864" stroke-linecap="round" stroke-linejoin="round"/>
<path d="M64.4551 47.1275C63.5003 46.8092 61.4632 47.5094 60.954 49.0372" stroke="black" stroke-width="0.954864" stroke-linecap="round" stroke-linejoin="round"/>
<circle cx="0.954864" cy="0.954864" r="0.954864" transform="matrix(-1 0 0 1 65.4103 49.6057)" fill="black"/>
<circle cx="0.954864" cy="0.954864" r="0.954864" transform="matrix(-1 0 0 1 75.5955 48.9618)" fill="black"/>
<path d="M67.1349 54.2834C67.6473 52.6019 69.4258 51.6541 71.1073 52.1664C72.7888 52.6788 73.7366 54.4573 73.2243 56.1388C72.9208 57.1349 72.173 57.8735 71.2642 58.2037" stroke="black" stroke-width="0.954864" stroke-linecap="round" stroke-linejoin="round"/>
<path d="M66.318 66.7204C62.435 65.3862 59.3649 57.9749 61.5867 58.9601C63.7762 61.007 70.1266 64.0941 75.6737 61.3698C77.0045 60.7163 73.8299 69.3016 66.318 66.7204Z" fill="black" stroke="black" stroke-width="0.954864" stroke-linecap="round" stroke-linejoin="round"/>
<path d="M67.7609 65.2361C69.7936 63.931 71.8135 65.0855 72.5369 65.7774C67.637 68.1927 64.6161 65.5262 63.3603 63.9034C64.8995 62.7237 67.062 64.2096 67.7609 65.2361Z" fill="white"/>
<path d="M62.8636 67.9517L62.8636 72.4077" stroke="black" stroke-width="0.954864" stroke-linecap="round" stroke-linejoin="round"/>
<path d="M65.4099 68.5883V72.4077" stroke="black" stroke-width="0.954864" stroke-linecap="round" stroke-linejoin="round"/>
<path d="M67.9563 69.2249V72.4077" stroke="black" stroke-width="0.954864" stroke-linecap="round" stroke-linejoin="round"/>
<path d="M70.5026 69.2249V72.4077" stroke="black" stroke-width="0.954864" stroke-linecap="round" stroke-linejoin="round"/>
<path d="M73.0488 69.2249V71.7712" stroke="black" stroke-width="0.954864" stroke-linecap="round" stroke-linejoin="round"/>
<path d="M75.5952 68.5883V71.1346" stroke="black" stroke-width="0.954864" stroke-linecap="round" stroke-linejoin="round"/>
<path d="M86.3571 40.4781C86.9789 40.6494 87.4132 40.817 87.6776 40.9675C87.4132 41.118 86.9789 41.2855 86.3571 41.4568C85.1237 41.7966 83.3068 42.1102 81.0239 42.3761C76.4675 42.907 70.154 43.2371 63.1675 43.2371C56.1811 43.2371 49.8676 42.907 45.3112 42.3761C43.0283 42.1102 41.2114 41.7966 39.978 41.4568C39.3562 41.2855 38.9219 41.118 38.6574 40.9675C38.9219 40.817 39.3562 40.6494 39.978 40.4781C41.2114 40.1384 43.0283 39.8248 45.3112 39.5588C49.8676 39.028 56.1811 38.6979 63.1675 38.6979C70.154 38.6979 76.4675 39.028 81.0239 39.5588C83.3068 39.8248 85.1237 40.1384 86.3571 40.4781Z" fill="#FFDA68" stroke="black" stroke-width="1.37107"/>
<path d="M62.4582 16.8335C51.1382 16.8335 45.4009 32.4706 43.7129 39.2813C55.566 40.8439 65.1 40.8439 82.6222 39.4455C80.3375 20.5346 68.5536 16.8335 62.4582 16.8335Z" fill="#FFDA68" stroke="black" stroke-width="1.37107" stroke-linejoin="round"/>
<path d="M53.0709 39.9821C54.9535 32.0119 56.6007 22.9869 62.7777 16.8335C66.1114 18.787 73.5435 27.558 74.2494 39.9821" stroke="black" stroke-width="1.37107" stroke-linejoin="round"/>
<path d="M66.6152 84.8016C66.6152 81.4791 68.8316 80.6027 69.378 80.8614C73.4261 82.7783 82.1972 108.975 85.908 122.713C88.8766 133.702 91.0806 151.572 91.9802 160.091C89.9561 160.73 78.4864 163.605 74.7756 163.605C71.0648 163.605 70.0527 162.008 70.0527 159.133L69.9474 151.299C69.7111 134.29 69.378 112.934 69.378 108.975C69.378 103.225 66.6152 88.9548 66.6152 84.8016Z" fill="#FF8140"/>
<path d="M69.378 108.975C69.378 103.225 66.6152 88.9548 66.6152 84.8016C66.6152 81.4791 68.8316 80.6027 69.378 80.8614C73.4261 82.7783 82.1972 108.975 85.908 122.713C88.8766 133.702 91.0806 151.572 91.9802 160.091C89.9561 160.73 78.4864 163.605 74.7756 163.605C71.0648 163.605 70.0527 162.008 70.0527 159.133M69.378 108.975C69.378 113.576 69.8278 141.668 70.0527 159.133M69.378 108.975L70.0527 159.133" stroke="black" stroke-width="1.37107" stroke-linejoin="round"/>
<path d="M63.505 84.2743C61.7731 81.7167 53.0723 77.9869 49.5569 76.9213C41.1201 80.2461 46.0416 110.49 49.5569 125.196C49.5569 127.497 45.2224 128.004 42.7276 127.897L36.3248 161.881C44.1493 162.308 61.1236 164.838 63.505 164.199C65.4676 163.672 70.3089 164.199 70.3089 158.444C70.3089 88.4304 68.2677 91.3077 63.505 84.2743Z" fill="#FF8140" stroke="black" stroke-width="1.37107" stroke-linejoin="round"/>
<path d="M40.7578 137.502L42.4816 128.636H70.3093V137.502H40.7578Z" fill="#FFDA68" stroke="black" stroke-width="1.37107" stroke-linejoin="round"/>
<path d="M37.3103 155.232L39.2804 146.367H70.3093L70.3093 155.232H37.3103Z" fill="#FFDA68" stroke="black" stroke-width="1.37107" stroke-linejoin="round"/>
<path d="M87.0031 126.666L69.8167 128.608V137.994L89.025 136.699L87.0031 126.666Z" fill="#FFDA68" stroke="black" stroke-width="1.37107" stroke-linejoin="round"/>
<path d="M90.1431 144.397L70.3093 146.309V155.232L91.4878 154.595L90.1431 144.397Z" fill="#FFDA68" stroke="black" stroke-width="1.37107" stroke-linejoin="round"/>
<path d="M52.4315 128.144C52.4315 111.657 51.0522 84.3894 48.6383 77.4141C51.397 77.4141 55.535 79.3164 57.2592 80.2676C61.1214 86.6089 61.6272 114.827 61.3973 128.144H52.4315Z" fill="#FFDA68" stroke="black" stroke-width="1.37107" stroke-linejoin="round"/>
<path d="M82.1297 126.858C82.1297 118.881 74.4955 92.1901 69.4882 81.2239C68.1279 80.1947 67.3344 81.8672 67.1077 82.8321C68.468 83.8614 73.4011 113.456 75.3281 128.144L82.1297 126.858Z" fill="#FFDA68" stroke="black" stroke-width="1.37107" stroke-linejoin="round"/>
</g>
<defs>
<clipPath id="clip0_26_2308">
<rect width="148" height="148" fill="white"/>
</clipPath>
</defs>
</svg>
