<svg width="148" height="148" viewBox="0 0 148 148" fill="none" xmlns="http://www.w3.org/2000/svg">
<g clip-path="url(#clip0_26_3699)">
<path d="M0 8C0 3.58173 3.58172 0 8 0H140C144.418 0 148 3.58172 148 8V140C148 144.418 144.418 148 140 148H8C3.58173 148 0 144.418 0 140V8Z" fill="#FFF1F2"/>
<path d="M49.0816 114.415C46.3808 116.134 39.5674 113.699 36.4983 112.267C35.2706 134.978 36.8051 142.958 39.8743 150.631C39.8743 154.621 50.0188 154.368 53.9922 154.007C57.3682 153.7 63.5065 154.621 70.5654 153.7C76.2126 152.963 77.9313 153.086 82.2281 153.7C84.6834 153.7 87.0643 156.989 86.5248 153.393C85.3867 145.806 86.2959 132.375 84.8384 125.573L73.0713 123.665L67.4963 129.454L49.0816 114.415Z" fill="#2563EB" stroke="black" stroke-width="1.16626" stroke-linecap="round" stroke-linejoin="round"/>
<path d="M75.778 123.315C74.0593 125.525 70.1513 128.328 68.4121 129.454C67.1845 128.963 72.4465 124.543 74.2879 121.781C76.1294 121.781 77.4967 121.106 75.778 123.315Z" fill="black" stroke="black" stroke-width="1.16626" stroke-linecap="round" stroke-linejoin="round"/>
<path d="M68.4171 130.681C65.4707 130.436 54.0946 120.042 49.0817 114.108C53.9922 119.019 63.6088 125.976 67.8033 128.84L73.9415 124.236L84.8384 126.078H74.2484C72.7138 127.715 71.3634 130.927 68.4171 130.681Z" fill="black" stroke="black" stroke-width="1.16626" stroke-linecap="round" stroke-linejoin="round"/>
<ellipse cx="99.4548" cy="93.8516" rx="1.84147" ry="8.90043" fill="black"/>
<path d="M98.2271 85.5653C84.723 87.0999 78.8074 85.2584 64.4668 81.2686C64.4668 81.2686 61.7046 82.1893 55.8733 81.5755C50.042 80.9617 48.2848 78.1995 48.2848 78.1995C44.9549 80.8594 36.1914 96.3072 36.1914 112.574C39.7984 113.847 47.3729 115.929 48.8144 114.065C55.1902 121.403 68.5146 131.081 68.7636 128.84C69.0705 126.078 81.3601 114.924 81.3601 114.924L83.8023 112.574L80.1766 111.735C79.1239 109.005 78.5995 106.918 77.3571 104.287C81.3601 105.821 93.6234 104.287 99.1478 102.445C95.158 92.6243 98.2271 85.5653 98.2271 85.5653Z" fill="#F7F9FE"/>
<path d="M83.8023 112.574L80.1766 111.735M83.8023 112.574C82.6893 112.383 81.4708 112.1 80.1766 111.735M83.8023 112.574L81.3601 114.924C81.3601 114.924 69.0705 126.078 68.7636 128.84C68.5146 131.081 55.1902 121.403 48.8144 114.065M48.8144 91.0897C52.1157 99.3431 68.9803 108.583 80.1766 111.735M45.7453 109.504C46.2245 110.779 47.3315 112.359 48.8144 114.065M77.3571 104.287C74.7378 98.7395 72.9069 91.6589 69.3776 87.0999C72.324 90.0462 75.518 100.399 77.3571 104.287ZM77.3571 104.287C81.3601 105.821 93.6234 104.287 99.1478 102.445C95.158 92.6243 98.2271 85.5653 98.2271 85.5653C84.723 87.0999 78.8074 85.2584 64.4668 81.2686C64.4668 81.2686 61.7046 82.1893 55.8733 81.5755C50.042 80.9617 48.2848 78.1995 48.2848 78.1995C44.9549 80.8594 36.1914 96.3072 36.1914 112.574C39.7984 113.847 47.3729 115.929 48.8144 114.065M77.3571 104.287C78.5995 106.918 79.1239 109.005 80.1766 111.735" stroke="black" stroke-width="1.16626" stroke-linecap="round" stroke-linejoin="round"/>
<path d="M147.147 53.9436C144.991 53.061 148.706 57.9855 145.73 61.9576C143.226 64.8687 121.572 80.7263 111.499 85.0573C110.176 85.6259 99.6701 86.285 98.079 85.9025C95.7472 90.2863 96.381 97.9798 98.0792 100.593C99.9724 101.007 111.585 97.5698 113.673 96.7644C129.439 90.6833 144.942 72.9289 149.285 69.5889C152.665 66.9894 163.386 64.7701 162.845 58.0687C162.748 56.8708 161.805 57.5757 160.907 58.4546C161.656 57.4156 162.25 56.09 161.796 55.2162C161.262 54.192 159.951 55.4382 159.052 56.3678C159.888 54.9516 159.978 52.3187 158.65 51.8553C155.76 54.553 152.112 58.863 150.022 59.2963C150.668 58.2322 149.302 54.8262 147.147 53.9436Z" fill="#D89A78"/>
<path d="M158.214 57.1866C159.733 56.5501 160.34 52.4452 158.65 51.8553C155.76 54.553 152.112 58.863 150.022 59.2963C150.668 58.2322 149.302 54.8262 147.147 53.9436C144.991 53.061 148.706 57.9855 145.73 61.9576C143.226 64.8687 121.572 80.7263 111.499 85.0573C110.176 85.6259 99.6701 86.285 98.079 85.9025C95.7472 90.2863 96.381 97.9798 98.0792 100.593C99.9724 101.007 111.585 97.5698 113.673 96.7644C129.439 90.6833 144.942 72.9289 149.285 69.5889C152.665 66.9894 163.386 64.7701 162.845 58.0687C162.676 55.9777 159.928 59.6848 159.346 59.994M158.214 57.1866C158.674 56.9362 161.032 53.7501 161.796 55.2162C162.589 56.7407 160.19 59.6404 159.346 59.994M158.214 57.1866C158.214 57.1866 157.515 58.283 153.853 60.5782M159.346 59.994C159.346 59.994 156.188 62.5392 155.322 62.6043" stroke="black" stroke-width="1.16626" stroke-linecap="round" stroke-linejoin="round"/>
<path d="M124.722 101.974L128.786 71.4359C128.872 70.7864 129.453 70.3192 130.106 70.3746L145.793 71.7052C146.483 71.7637 146.988 72.3807 146.909 73.0685L143.849 99.7074L143.408 103.546C143.333 104.203 142.752 104.682 142.093 104.63L125.843 103.36C125.141 103.305 124.629 102.672 124.722 101.974Z" fill="#00719A" stroke="black" stroke-width="1.16626" stroke-linecap="round" stroke-linejoin="round"/>
<path d="M93.1512 115.429C93.1512 115.429 83.1885 112.574 82.0635 111.971C80.9385 111.369 75.8227 118.405 71.219 122.395C71.219 122.395 86.4543 126.892 91.3599 127.111C96.2656 127.331 120.084 122.18 133.317 113.254C134.52 112.578 142.805 107.422 141.612 105.079C143.679 103.745 142.088 101.218 141.519 101.636C142.729 100.747 141.589 99.0705 140.274 99.6836C132.375 103.367 129.532 104.242 127.536 104.242C127.536 98.4561 121.212 98.7054 122.78 100.298C126.01 103.578 124.051 106.552 124.051 106.552C124.051 106.552 119.815 110.39 110.206 113.19C100.598 115.991 93.1512 115.429 93.1512 115.429Z" fill="#D89A78"/>
<path d="M141.519 101.636C142.729 100.747 141.589 99.0705 140.274 99.6836C132.375 103.367 129.532 104.242 127.536 104.242C127.536 98.4561 121.212 98.7054 122.78 100.298C126.01 103.578 124.051 106.552 124.051 106.552C124.051 106.552 119.815 110.39 110.206 113.19C100.598 115.991 93.1512 115.429 93.1512 115.429C93.1512 115.429 83.1885 112.574 82.0635 111.971C80.9385 111.369 75.8227 118.405 71.219 122.395C71.219 122.395 86.4543 126.892 91.3599 127.111C96.2656 127.331 120.084 122.18 133.317 113.254C134.52 112.578 142.805 107.422 141.612 105.079M141.519 101.636C142.088 101.218 143.679 103.745 141.612 105.079M141.519 101.636C139.653 103.006 134.448 106.904 131.013 106.625M141.612 105.079C139.544 106.414 134.188 110.217 131.761 109.845" stroke="black" stroke-width="1.16626" stroke-linecap="round" stroke-linejoin="round"/>
<path d="M60.157 82.1235C53.5277 82.6145 49.4151 79.7708 49.1082 76.9063C50.3358 75.6786 48.1875 75.0651 47.5736 76.9068C46.4486 80.282 40.5146 81.8166 47.5737 86.1133C54.6327 90.4101 54.6326 90.8193 59.2362 91.9446C61.9371 91.6991 57.7017 85.1922 60.157 82.1235Z" fill="white" stroke="black" stroke-width="1.16626" stroke-linecap="round" stroke-linejoin="round"/>
<path d="M65.3743 89.4895C64.1467 86.1135 62.1006 83.4536 60.4637 81.8167C64.6377 81.8167 63.6352 80.3844 63.5329 78.4407C65.3743 78.4407 67.0317 80.6504 67.5227 82.1236C68.0138 83.5968 69.6711 85.1927 71.2056 85.1927C70.4691 86.1748 67.9319 87.7503 65.3743 89.4895Z" fill="white" stroke="black" stroke-width="1.16626" stroke-linecap="round" stroke-linejoin="round"/>
<path d="M60.4637 82.7374C63.2259 86.625 66.9089 98.2671 68.1365 102.687" stroke="black" stroke-width="1.16626" stroke-linecap="round" stroke-linejoin="round"/>
<path d="M53.9923 89.8622C52.2736 89.6166 46.9333 85.2585 44.478 83.1101C52.0894 102.507 71.3839 110.016 80.0798 111.346L73.0208 93.852L57.0614 97.228L53.9923 89.8622Z" fill="#2563EB" stroke="black" stroke-width="1.16626" stroke-linecap="round" stroke-linejoin="round"/>
<path d="M38.9536 147.562C44.2734 148.482 49.0817 147.562 54.913 147.562C61.9251 147.562 84.6834 146.334 86.218 149.71" stroke="black" stroke-width="0.920734"/>
<path d="M80.1648 61.6457V38.0135L50.0026 37.4087C50.0026 44.1607 51.9289 47.6301 51.3151 49.0623C48.9621 47.3232 44.0106 45.0111 43.0285 49.6762C42.0464 54.3412 45.1202 58.1071 47.7801 58.4141C47.7801 69.4839 47.7801 74.1886 48.5529 77.2982C48.5529 80.8766 59.6017 81.3903 63.5916 80.3673V72.6945C80.042 73.1856 80.1648 67.1701 80.1648 61.6457Z" fill="#D89A78" stroke="black" stroke-width="1.16626" stroke-linejoin="round"/>
<path d="M63.2847 72.6945C61.1343 72.5967 57.6017 71.9573 56.6487 70.1874C56.6088 70.1002 56.57 70.0151 56.5326 69.9323C56.5654 70.0198 56.6043 70.1048 56.6487 70.1874C58.1392 73.4374 61.3717 79.5821 63.2847 80.0603V72.6945Z" fill="black"/>
<path d="M63.2847 72.6945C61.034 72.5922 57.2692 71.8965 56.5326 69.9323C57.9649 73.1037 61.3204 79.5693 63.2847 80.0603V72.6945Z" stroke="black" stroke-width="1.16626" stroke-linecap="round" stroke-linejoin="round"/>
<path d="M48.7747 84.6447C41.1019 90.7829 29.6439 88.123 25.1426 84.6447C33.4292 75.7443 28.2117 17.4591 60.1304 23.5973C67.4963 20.2215 78.852 22.9834 82.8419 40.1705C82.5111 41.0355 75.783 43.8536 75.783 43.8536C75.783 43.8536 73.6346 44.8896 72.4069 44.8896C72.0016 44.9683 69.4437 33.6561 69.0308 33.7256C69.3377 42.3191 68.8287 45.3283 69.0308 45.3882C68.0925 45.494 64.0998 45.6091 61.665 45.6996C61.665 45.6996 51.9789 45.8244 51.23 45.6996V48.4618C48.877 47.1318 43.8641 45.5768 42.6365 49.9964C41.4088 54.4159 46.2171 57.1576 48.7747 57.9761C48.7747 65.9513 49.6955 80.041 48.7747 84.6447Z" fill="black" stroke="black" stroke-width="1.16626" stroke-linecap="round" stroke-linejoin="round"/>
<path d="M67.8032 26.3315C71.3839 27.6615 78.852 31.9787 80.0797 38.608" stroke="white" stroke-width="1.16626" stroke-linecap="round" stroke-linejoin="round"/>
<path d="M72.8568 47.9189C74.3914 47.3051 77.1536 48.2872 77.1536 50.988" stroke="black" stroke-width="0.920734" stroke-linecap="round" stroke-linejoin="round"/>
<path d="M63.5065 48.2985C62.5858 47.9916 60.6216 48.6668 60.1305 50.1399" stroke="black" stroke-width="0.920734" stroke-linecap="round" stroke-linejoin="round"/>
<circle cx="0.920734" cy="0.920734" r="0.920734" transform="matrix(-1 0 0 1 64.4275 50.6881)" fill="black"/>
<circle cx="0.920734" cy="0.920734" r="0.920734" transform="matrix(-1 0 0 1 74.2487 50.0673)" fill="black"/>
<path d="M66.0906 55.1985C66.5846 53.5771 68.2995 52.6632 69.921 53.1572C71.5424 53.6513 72.4563 55.3662 71.9623 56.9876C71.6696 57.9481 70.9485 58.6604 70.0722 58.9787" stroke="black" stroke-width="0.920734" stroke-linecap="round" stroke-linejoin="round"/>
<path d="M59.2097 58.2504C59.2097 60.7057 60.7443 62.9021 62.9897 64.1852C66.4272 66.1495 70.5654 65.6162 72.8109 63.8783" stroke="black" stroke-width="0.920734" stroke-linecap="round" stroke-linejoin="round"/>
<circle cx="62.8927" cy="52.1122" r="3.98985" stroke="black" stroke-width="0.920734" stroke-linecap="round" stroke-linejoin="round"/>
<path d="M78.1238 52.1122C78.1238 54.3157 76.3374 56.102 74.1339 56.102C73.4697 56.102 72.8433 55.9397 72.2924 55.6526C72.2924 55.6526 72.1618 55.0981 71.6786 54.2605C71.2332 53.4884 70.2767 53.0921 70.2767 53.0921C70.1518 52.7054 70.1441 52.5405 70.1441 52.1122C70.1441 49.9086 71.9304 48.1223 74.1339 48.1223C76.3374 48.1223 78.1238 49.9086 78.1238 52.1122Z" stroke="black" stroke-width="0.920734" stroke-linecap="round" stroke-linejoin="round"/>
<path d="M78.1238 50.9755L79.6113 49.488" stroke="black" stroke-width="0.920734" stroke-linecap="round" stroke-linejoin="round"/>
<path d="M50.9231 48.4292C52.7646 49.4522 56.8158 51.4983 58.289 51.4983" stroke="black" stroke-width="0.920734" stroke-linecap="round" stroke-linejoin="round"/>
</g>
<defs>
<clipPath id="clip0_26_3699">
<rect width="148" height="148" fill="white"/>
</clipPath>
</defs>
</svg>
