<svg width="148" height="148" viewBox="0 0 148 148" fill="none" xmlns="http://www.w3.org/2000/svg">
<g clip-path="url(#clip0_26_3548)">
<path d="M0 8C0 3.58173 3.58172 0 8 0H140C144.418 0 148 3.58172 148 8V140C148 144.418 144.418 148 140 148H8C3.58173 148 0 144.418 0 140V8Z" fill="#FFF7ED"/>
<path d="M85.5104 125.771C90.1755 125.034 95.6385 119.121 97.7869 116.257L84.2828 122.395L85.5104 125.771Z" fill="black" stroke="black" stroke-width="1.16626" stroke-linecap="round" stroke-linejoin="round"/>
<path d="M98.4007 125.157L92.3889 113.171C90.7847 112.378 84.955 115.689 83.7341 118.729C83.7341 118.729 87.5228 134.319 92.389 134.978C97.2551 135.637 123.286 135.41 137.266 127.708C138.526 127.143 139.023 125.862 139.362 124.458C140.332 123.763 140.233 122.54 139.71 121.966C140.389 120.679 139.678 119.505 139.161 118.721C138.006 116.97 134.597 117.507 132.318 118.214C130.647 112.119 124.399 112.057 125.818 113.783C128.74 117.34 128.029 120.146 128.029 120.146C128.029 120.146 125.409 122.531 115.588 124.458C105.767 126.385 98.4007 125.157 98.4007 125.157Z" fill="#F5B896" stroke="black" stroke-width="1.16626" stroke-linecap="round" stroke-linejoin="round"/>
<path d="M141.279 143.03C138.132 143.351 133.715 142.093 131.899 141.423C130.386 146.243 127.3 156.285 127.058 157.892C126.755 159.9 129.781 159.097 134.017 158.896C138.253 158.695 144.91 157.089 147.633 157.892C150.356 158.695 154.592 158.494 153.987 155.884C153.503 153.795 149.549 145.373 147.633 141.423C146.826 141.825 144.426 142.709 141.279 143.03Z" fill="#BF7657" stroke="black" stroke-width="1.12864" stroke-linecap="round" stroke-linejoin="round"/>
<path d="M133.176 134.057C133.892 127.305 136.183 113.801 139.621 113.801C143.058 113.801 144.531 127.305 144.838 134.057" stroke="black" stroke-width="1.16626" stroke-linecap="round" stroke-linejoin="round"/>
<path d="M145.759 137.433C146.782 142.651 149.135 153.577 150.363 155.541" stroke="black" stroke-width="1.16626" stroke-linecap="round" stroke-linejoin="round"/>
<path d="M134.096 157.383L148.214 121.167L146.68 119.94L132.869 156.155L134.096 157.383Z" fill="#1361F0" stroke="black" stroke-width="1.12864" stroke-linecap="round" stroke-linejoin="round"/>
<path d="M131.948 132.523C136.04 131.705 144.838 130.559 147.293 132.523" stroke="black" stroke-width="1.16626" stroke-linecap="round" stroke-linejoin="round"/>
<path d="M141.155 134.978C137.963 135.469 133.482 133.546 131.641 132.523C130.106 139.889 126.976 155.234 126.73 157.69C126.423 160.759 129.492 159.531 133.789 159.224C138.086 158.917 144.838 156.462 147.6 157.69C150.362 158.917 154.659 158.61 154.045 154.621C153.554 151.429 149.544 138.559 147.6 132.523C146.782 133.137 144.347 134.487 141.155 134.978Z" stroke="black" stroke-width="1.16626" stroke-linecap="round" stroke-linejoin="round"/>
<path d="M62.5763 80.6549C76.9169 84.6447 87.3519 107.663 97.48 115.95C97.48 115.95 88.5225 117.791 85.1465 121.167C89.6874 130.801 92.4097 144.276 90.1983 157.076C80.6841 153.7 63.497 155.541 57.0519 158.61C51.8958 161.066 39.7625 159.224 34.3404 157.997C32.4147 150.631 35.7908 132.523 42.0132 121.167C38.3303 119.019 29.1229 117.484 22.9847 115.95C26.9132 101.463 41.3994 83.9286 48.1515 76.9719L62.5763 80.6549Z" fill="#686A71"/>
<path d="M42.0132 121.167C38.3303 119.019 29.1229 117.484 22.9847 115.95C26.9132 101.463 41.3994 83.9286 48.1515 76.9719L62.5763 80.6549C76.9169 84.6447 87.3519 107.663 97.48 115.95C97.48 115.95 88.5225 117.791 85.1465 121.167M42.0132 121.167C35.7908 132.523 32.4147 150.631 34.3404 157.997C39.7625 159.224 51.8958 161.066 57.0519 158.61C63.497 155.541 80.6841 153.7 90.1983 157.076C93.1933 139.741 87.1388 121.167 79.7729 112.574C75.7868 104.758 75.3509 99.9951 69.6448 92.6244M42.0132 121.167L48.1515 124.236C46.6169 117.177 48.7749 103.059 50.6163 92.6244" stroke="black" stroke-width="1.16626" stroke-linecap="round" stroke-linejoin="round"/>
<path d="M57.0616 121.167C59.5169 119.99 66.269 116.752 72.5826 117.635C78.0121 118.394 80.0362 119.99 81.0007 121.167" stroke="black" stroke-width="0.920734" stroke-linecap="round" stroke-linejoin="round"/>
<path d="M22.6779 116.31C29.1094 120.302 43.1468 127.602 47.8446 124.864C39.8751 121.728 23.6845 115.625 22.6779 116.31Z" fill="black" stroke="black" stroke-width="1.16626" stroke-linecap="round" stroke-linejoin="round"/>
<path d="M35.6729 179.933C34.1052 175.131 37.7573 144.065 44.0061 122.234C37.7262 118.712 31.2811 117.937 28.5852 117.937C24.7277 137.651 27.8225 160.502 27.3629 179.933C25.8772 184.761 25.2888 194.85 27.3629 196.813C28.6603 198.041 28.9672 196.813 28.9672 195.892C29.3491 197.109 29.2461 198.122 30.3343 198.122C31.4225 198.122 31.7909 196.184 31.82 195.552C31.82 197.409 32.5023 198.122 33.6772 198.122C35.7193 198.041 34.42 191.724 35.6729 187.182C36.3693 188.517 38.3286 190.769 40.5942 189.092C41.2437 188.611 36.2116 183.751 35.6729 179.933Z" fill="#F5B896"/>
<path d="M31.82 195.552C31.82 197.409 32.5023 198.122 33.6772 198.122C35.7193 198.041 34.42 191.724 35.6729 187.182C36.3693 188.517 38.3286 190.769 40.5942 189.092C41.2437 188.611 36.2116 183.751 35.6729 179.933C34.1052 175.131 37.7573 144.065 44.0061 122.234C37.7262 118.712 31.2811 117.937 28.5852 117.937C24.7277 137.651 27.8225 160.502 27.3629 179.933C25.8772 184.761 25.2888 194.85 27.3629 196.813C28.6603 198.041 28.9672 196.813 28.9672 195.892M31.82 195.552C31.7909 196.184 31.4225 198.122 30.3343 198.122C29.2461 198.122 29.3491 197.109 28.9672 195.892M31.82 195.552C31.82 195.552 31.4225 192.516 31.82 187.182M28.9672 195.892C28.9672 195.892 28.0465 189.754 28.9672 187.182" stroke="black" stroke-width="1.16626" stroke-linecap="round" stroke-linejoin="round"/>
<path d="M45.399 123.009L37.4193 158.61C37.4193 155.933 41.7161 133.76 43.8645 123.009H45.399Z" fill="black" stroke="black" stroke-width="1.16626" stroke-linecap="round" stroke-linejoin="round"/>
<path d="M131.723 120.059C132.184 121.321 135.265 120.674 137.335 119.919C139.405 119.164 139.559 118.255 139.22 117.325C138.881 116.396 138.178 115.799 136.108 116.554C134.038 117.309 131.263 118.797 131.723 120.059Z" fill="#F5B896" stroke="black" stroke-width="1.16626" stroke-linecap="round" stroke-linejoin="round"/>
<path d="M132.951 123.128C133.411 124.39 136.492 123.743 138.562 122.988C140.633 122.233 140.787 121.324 140.448 120.394C140.109 119.465 139.406 118.868 137.335 119.623C135.265 120.378 132.491 121.866 132.951 123.128Z" fill="#F5B896" stroke="black" stroke-width="1.16626" stroke-linecap="round" stroke-linejoin="round"/>
<path d="M133.565 126.197C134.025 127.459 137.106 126.812 139.176 126.057C141.246 125.302 141.4 124.393 141.062 123.464C140.723 122.534 140.019 121.937 137.949 122.692C135.879 123.447 133.105 124.935 133.565 126.197Z" fill="#F5B896" stroke="black" stroke-width="1.16626" stroke-linecap="round" stroke-linejoin="round"/>
<path d="M79.2734 61.6334V38.0012L63.9279 29.5309L52.8791 38.0012C50.1169 44.8426 52.2652 47.6178 51.6514 49.0501C49.2984 47.3109 44.3469 44.9988 43.3648 49.6639C42.3827 54.3289 47.457 56.109 50.1169 56.4159C52.0811 66.9737 50.1169 74.7283 48.8892 77.2859C51.3445 82.1965 59.938 81.3781 63.9279 80.355V72.6822C80.3783 73.1733 79.2734 67.1578 79.2734 61.6334Z" fill="#F5B896" stroke="black" stroke-width="1.16626" stroke-linejoin="round"/>
<path d="M76.4081 29.3669C79.2414 27.242 82.0748 29.3669 84.9082 38.2212C82.084 39.2802 79.5414 35.3427 79.2443 44.8569C79.2435 44.8884 79.2426 44.9196 79.2414 44.9504C79.2424 44.9191 79.2433 44.8879 79.2443 44.8569C79.321 41.6225 77.3148 34.4589 68.6163 33.617C58.6807 32.6555 51.9703 39.1692 51.9703 49.5546C48.7828 47.4298 46.3036 45.6589 43.8244 48.1377C41.6994 31.8462 57.637 13.7835 76.4081 29.3669Z" fill="#BFC2C8" stroke="black" stroke-width="1.13335" stroke-linejoin="round"/>
<path d="M50.1993 34.6795C57.2827 26.1795 65.4287 22.9918 73.5746 31.8458" stroke="white" stroke-width="0.886792" stroke-linecap="round" stroke-linejoin="round"/>
<path d="M50.5535 41.4087C53.741 30.4294 68.1184 25.7152 73.5746 31.8461" stroke="white" stroke-width="0.886792" stroke-linecap="round" stroke-linejoin="round"/>
<path d="M81.0121 36.8045C79.5954 32.0854 77.8245 30.7837 75.3453 32.0856" stroke="white" stroke-width="0.886792" stroke-linecap="round" stroke-linejoin="round"/>
<path d="M63.621 72.6822C61.4706 72.5845 57.938 71.9451 56.985 70.1751C56.9451 70.088 56.9063 70.0029 56.8689 69.92C56.9017 70.0076 56.9406 70.0926 56.985 70.1751C58.4755 73.4252 61.708 79.5699 63.621 80.0481V72.6822Z" fill="black" stroke="black" stroke-width="1.16626" stroke-linecap="round" stroke-linejoin="round"/>
<path d="M72.0999 47.6846C73.6344 47.0708 76.3966 48.0529 76.3966 50.7537" stroke="black" stroke-width="0.920734" stroke-linecap="round" stroke-linejoin="round"/>
<path d="M63.5064 48.2985C62.5857 47.9916 60.6214 48.6668 60.1304 50.1399" stroke="black" stroke-width="0.920734" stroke-linecap="round" stroke-linejoin="round"/>
<circle cx="0.920734" cy="0.920734" r="0.920734" transform="matrix(-1 0 0 1 64.4274 50.6881)" fill="black"/>
<circle cx="0.920734" cy="0.920734" r="0.920734" transform="matrix(-1 0 0 1 74.2485 50.0673)" fill="black"/>
<path d="M72.7227 50.9972C72.7227 52.1685 73.819 52.5418 75.1782 52.4004" stroke="black" stroke-width="0.70159" stroke-linecap="round"/>
<path d="M64.0404 51.6089C64.0404 52.8685 62.6176 53.2419 61.5848 53.0121" stroke="black" stroke-width="0.70159" stroke-linecap="round"/>
<path d="M66.0904 55.1985C66.5845 53.5771 68.2994 52.6632 69.9208 53.1572C71.5423 53.6513 72.4562 55.3662 71.9622 56.9876C71.6695 57.9481 70.9484 58.6604 70.0721 58.9787" stroke="black" stroke-width="0.920734" stroke-linecap="round" stroke-linejoin="round"/>
<path d="M65.3477 63.1613C65.8592 63.8774 66.8822 65.3096 69.0306 65.3096C70.7493 65.3096 71.7928 63.8774 72.0997 63.1613" stroke="black" stroke-width="0.920734" stroke-linecap="round" stroke-linejoin="round"/>
<path d="M60.4375 54.0994C60.4375 55.8834 61.8115 57.3296 63.5066 57.3296C65.2016 57.3296 66.5757 55.8834 66.5757 54.0994C66.5757 54.0994 65.2016 54.0994 63.5066 54.0994C61.8115 54.0994 60.4375 54.0994 60.4375 54.0994Z" fill="white" stroke="black" stroke-width="0.920734" stroke-linecap="round" stroke-linejoin="round"/>
<path d="M71.7932 53.6466C71.7932 55.3416 73.1673 56.7157 74.8623 56.7157C76.5573 56.7157 77.9314 55.3416 77.9314 53.6466C77.9314 53.6466 76.5573 53.6466 74.8623 53.6466C73.1673 53.6466 71.7932 53.6466 71.7932 53.6466Z" fill="white" stroke="black" stroke-width="0.920734" stroke-linecap="round" stroke-linejoin="round"/>
<path d="M63.3263 60.2922C62.9418 59.4716 68.8297 58.5588 68.8297 58.5588C68.8297 58.5588 74.4804 60.1021 73.5282 60.9039C72.576 61.7058 71.0422 59.9644 71.0422 59.9644C71.0422 59.9644 71.1152 61.4895 70.2462 61.4895C69.3772 61.4895 68.388 59.9644 68.388 59.9644C68.388 59.9644 67.2361 61.3137 66.2222 61.3137C65.2082 61.3137 65.7339 59.6799 65.7339 59.6799C65.7339 59.6799 63.7108 61.1127 63.3263 60.2922Z" fill="black" stroke="black" stroke-width="0.736588" stroke-linecap="round" stroke-linejoin="round"/>
</g>
<defs>
<clipPath id="clip0_26_3548">
<rect width="148" height="148" fill="white"/>
</clipPath>
</defs>
</svg>
